<svg width="20" height="20" viewBox="0 0 20 20" fill="none" xmlns="http://www.w3.org/2000/svg">
<path d="M9.6 0C4.298 0 0 4.298 0 9.6C0 14.902 4.298 19.2 9.6 19.2C14.902 19.2 19.2 14.902 19.2 9.6C19.2 4.298 14.902 0 9.6 0ZM10.257 11.875C9.641 11.828 9.383 11.523 8.901 11.231C8.636 12.622 8.312 13.956 7.352 14.653C7.055 12.549 7.786 10.971 8.126 9.294C7.547 8.319 8.195 6.358 9.417 6.84C10.92 7.436 8.115 10.465 9.998 10.844C11.964 11.238 12.767 7.432 11.548 6.196C9.786 4.409 6.421 6.155 6.835 8.713C6.935 9.338 7.582 9.528 7.093 10.391C5.966 10.141 5.629 9.252 5.673 8.067C5.742 6.127 7.416 4.768 9.094 4.581C11.217 4.345 13.209 5.36 13.485 7.358C13.794 9.612 12.526 12.051 10.257 11.875Z" fill="white"/>
</svg>
