<svg width="20" height="20" viewBox="0 0 20 20" fill="none" xmlns="http://www.w3.org/2000/svg">
<path d="M9.6 0C4.298 0 0 4.298 0 9.6C0 14.902 4.298 19.2 9.6 19.2C14.902 19.2 19.2 14.902 19.2 9.6C19.2 4.298 14.902 0 9.6 0ZM9.047 13.721C8.444 14.014 7.795 14.045 7.544 14.045H7.469H7.415C7.023 14.045 5.072 13.955 5.072 12.178C5.072 10.432 7.197 10.295 7.848 10.295H7.865C7.489 9.793 7.567 9.287 7.567 9.287C7.52038 9.28973 7.4737 9.29106 7.427 9.291C7.182 9.291 6.709 9.252 6.303 8.99C5.805 8.67 5.553 8.125 5.553 7.371C5.553 5.24 7.88 5.154 7.903 5.152H10.227V5.203C10.227 5.463 9.76 5.514 9.442 5.557C9.334 5.573 9.117 5.594 9.056 5.625C9.645 5.94 9.74 6.434 9.74 7.17C9.74 8.008 9.412 8.451 9.064 8.762C8.848 8.955 8.679 9.106 8.679 9.309C8.679 9.508 8.911 9.711 9.181 9.948C9.622 10.337 10.227 10.866 10.227 11.759C10.227 12.682 9.83 13.342 9.047 13.721V13.721ZM14.1 9.6H12.6V11.1H11.6V9.6H10.1V8.6H11.6V7.1H12.6V8.6H14.1V9.6ZM7.823 10.75C7.77061 10.75 7.71824 10.752 7.666 10.756C7.24126 10.7805 6.83671 10.9454 6.516 11.225C6.222 11.491 6.072 11.827 6.093 12.166C6.138 12.877 6.901 13.293 7.828 13.227C8.74 13.161 9.348 12.635 9.304 11.924C9.262 11.256 8.681 10.75 7.823 10.75V10.75ZM8.697 6.885C8.455 6.035 8.065 5.783 7.459 5.783C7.39343 5.78348 7.32821 5.79256 7.265 5.81C7.002 5.885 6.793 6.104 6.677 6.43C6.558 6.76 6.551 7.104 6.653 7.496C6.838 8.197 7.336 8.705 7.838 8.705C7.90365 8.70564 7.96902 8.69654 8.032 8.678C8.581 8.524 8.925 7.686 8.697 6.885V6.885Z" fill="white"/>
</svg>
